<svg xmlns="http://www.w3.org/2000/svg" viewBox="0 0 258.3 160.8" role="img" aria-labelledby="title">
  <title id="title">RCB monogram</title>
  <path fill="#0B1F33" d="M15.949 0h49.031s27.411 4.523 31.934 30.305C96.914 30.305 114.914 0 141.875 0h21.074v26.234h-19.449c-8.516.004-26.875 12.359-26.688 32.567.23 24.422 20.719 32.113 26.414 32.113h80.781s8.774.809 8.774-10.223c0-11.035-8.774-11.035-8.774-11.035h-59.25V47.492h59.25s8.774-1.453 8.774-11.582c0-10.129-8.774-9.676-8.774-9.676h-59.25L179.414 0h44.593s33.927 1.809 33.927 26.234c0 24.426-15.829 30.305-20.356 33.016 0 0 20.356 6.695 20.356 28.68 0 21.98-18.547 30.121-33.927 30.121h-77.617s-26.082.102-42.695-21.258c-13.621-17.516-13.57-35.105-13.418-32.934.144 2.039-.602-1.441-.602-1.441s-14.023 12.211-22.164 13.117l-.078 1.215 100.676 83.367h-40.715L15.949 69.656V47.492h47.219s7.961-.41 7.961-9.949c0-9.953-7.961-11.309-7.961-11.309H.301L15.949 0Z"/>
</svg>
